<svg width="100" height="18" viewBox="0 0 100 18" fill="none" xmlns="http://www.w3.org/2000/svg">
<path d="M4.106 13.159C4.106 13.5577 4.22867 13.8413 4.474 14.01C4.73467 14.1787 5.095 14.263 5.555 14.263C5.785 14.263 6.02267 14.2477 6.268 14.217C6.51333 14.171 6.728 14.1173 6.912 14.056C7.05 14.2247 7.165 14.4163 7.257 14.631C7.36433 14.8303 7.418 15.0757 7.418 15.367C7.418 15.9497 7.19567 16.425 6.751 16.793C6.32167 17.161 5.555 17.345 4.451 17.345C3.10167 17.345 2.059 17.0383 1.323 16.425C0.602333 15.8117 0.242 14.815 0.242 13.435V3.591C0.410667 3.545 0.648333 3.499 0.955 3.453C1.277 3.39167 1.61433 3.361 1.967 3.361C2.64167 3.361 3.163 3.48367 3.531 3.729C3.91433 3.959 4.106 4.45733 4.106 5.224V6.696H7.119C7.211 6.86467 7.29533 7.07933 7.372 7.34C7.464 7.58533 7.51 7.86133 7.51 8.168C7.51 8.70467 7.38733 9.09567 7.142 9.341C6.912 9.571 6.59767 9.686 6.199 9.686H4.106V13.159ZM13.315 16.977C13.1617 17.023 12.9163 17.069 12.579 17.115C12.257 17.161 11.9197 17.184 11.567 17.184C11.2297 17.184 10.923 17.161 10.647 17.115C10.3863 17.069 10.164 16.977 9.97998 16.839C9.79598 16.701 9.65032 16.517 9.54298 16.287C9.45098 16.0417 9.40498 15.7273 9.40498 15.344V8.444C9.40498 8.09133 9.46632 7.79233 9.58898 7.547C9.72698 7.28633 9.91865 7.05633 10.164 6.857C10.4093 6.65767 10.7083 6.48133 11.061 6.328C11.429 6.15933 11.82 6.01367 12.234 5.891C12.648 5.76833 13.0773 5.67633 13.522 5.615C13.9667 5.53833 14.4113 5.5 14.856 5.5C15.592 5.5 16.1747 5.64567 16.604 5.937C17.0333 6.213 17.248 6.673 17.248 7.317C17.248 7.53167 17.2173 7.74633 17.156 7.961C17.0947 8.16033 17.018 8.34433 16.926 8.513C16.604 8.513 16.2743 8.52833 15.937 8.559C15.5997 8.58967 15.27 8.63567 14.948 8.697C14.626 8.75833 14.3193 8.82733 14.028 8.904C13.752 8.96533 13.5143 9.042 13.315 9.134V16.977ZM24.3453 17.368C23.4406 17.368 22.5973 17.2453 21.8153 17C21.0486 16.7393 20.3739 16.356 19.7913 15.85C19.2239 15.344 18.7716 14.7077 18.4343 13.941C18.1123 13.1743 17.9513 12.2773 17.9513 11.25C17.9513 10.238 18.1123 9.37167 18.4343 8.651C18.7716 7.915 19.2086 7.317 19.7453 6.857C20.2819 6.38167 20.8953 6.03667 21.5853 5.822C22.2753 5.592 22.9806 5.477 23.7013 5.477C24.5139 5.477 25.2499 5.59967 25.9093 5.845C26.5839 6.09033 27.1589 6.42767 27.6343 6.857C28.1249 7.28633 28.5006 7.8 28.7613 8.398C29.0373 8.996 29.1753 9.64767 29.1753 10.353C29.1753 10.8743 29.0296 11.273 28.7383 11.549C28.4469 11.825 28.0406 12.0013 27.5193 12.078L21.8383 12.929C22.0069 13.435 22.3519 13.8183 22.8733 14.079C23.3946 14.3243 23.9926 14.447 24.6673 14.447C25.2959 14.447 25.8863 14.3703 26.4383 14.217C27.0056 14.0483 27.4656 13.8567 27.8183 13.642C28.0636 13.7953 28.2706 14.01 28.4393 14.286C28.6079 14.562 28.6923 14.8533 28.6923 15.16C28.6923 15.85 28.3703 16.3637 27.7263 16.701C27.2356 16.9617 26.6836 17.138 26.0703 17.23C25.4569 17.322 24.8819 17.368 24.3453 17.368ZM23.7013 8.329C23.3333 8.329 23.0113 8.39033 22.7353 8.513C22.4746 8.63567 22.2599 8.79667 22.0913 8.996C21.9226 9.18 21.7923 9.39467 21.7003 9.64C21.6236 9.87 21.5776 10.1077 21.5623 10.353L25.4953 9.709C25.4493 9.40233 25.2806 9.09567 24.9893 8.789C24.6979 8.48233 24.2686 8.329 23.7013 8.329ZM30.9653 2.717C30.9653 2.13433 31.157 1.64367 31.5403 1.245C31.939 0.846332 32.4603 0.646999 33.1043 0.646999C33.7483 0.646999 34.262 0.846332 34.6453 1.245C35.044 1.64367 35.2433 2.13433 35.2433 2.717C35.2433 3.29967 35.044 3.79033 34.6453 4.189C34.262 4.58767 33.7483 4.787 33.1043 4.787C32.4603 4.787 31.939 4.58767 31.5403 4.189C31.157 3.79033 30.9653 3.29967 30.9653 2.717ZM35.0593 16.977C34.8907 17.0077 34.6377 17.046 34.3003 17.092C33.9783 17.1533 33.6487 17.184 33.3113 17.184C32.974 17.184 32.6673 17.161 32.3913 17.115C32.1307 17.069 31.9083 16.977 31.7243 16.839C31.5403 16.701 31.3947 16.517 31.2873 16.287C31.1953 16.0417 31.1493 15.7273 31.1493 15.344V5.983C31.318 5.95233 31.5633 5.914 31.8853 5.868C32.2227 5.80667 32.56 5.776 32.8973 5.776C33.2347 5.776 33.5337 5.799 33.7943 5.845C34.0703 5.891 34.3003 5.983 34.4843 6.121C34.6683 6.259 34.8063 6.45067 34.8983 6.696C35.0057 6.926 35.0593 7.23267 35.0593 7.616V16.977ZM44.6325 9.916C44.6325 9.44067 44.4945 9.09567 44.2185 8.881C43.9579 8.651 43.5975 8.536 43.1375 8.536C42.8309 8.536 42.5242 8.57433 42.2175 8.651C41.9262 8.72767 41.6732 8.84267 41.4585 8.996V16.977C41.3052 17.023 41.0599 17.069 40.7225 17.115C40.4005 17.161 40.0632 17.184 39.7105 17.184C39.3732 17.184 39.0665 17.161 38.7905 17.115C38.5299 17.069 38.3075 16.977 38.1235 16.839C37.9395 16.701 37.7939 16.517 37.6865 16.287C37.5945 16.0417 37.5485 15.7273 37.5485 15.344V8.444C37.5485 8.03 37.6329 7.69267 37.8015 7.432C37.9855 7.17133 38.2309 6.93367 38.5375 6.719C39.0589 6.351 39.7105 6.052 40.4925 5.822C41.2899 5.592 42.1715 5.477 43.1375 5.477C44.8702 5.477 46.2042 5.86033 47.1395 6.627C48.0749 7.37833 48.5425 8.42867 48.5425 9.778V16.977C48.3892 17.023 48.1439 17.069 47.8065 17.115C47.4845 17.161 47.1472 17.184 46.7945 17.184C46.4572 17.184 46.1505 17.161 45.8745 17.115C45.6139 17.069 45.3915 16.977 45.2075 16.839C45.0235 16.701 44.8779 16.517 44.7705 16.287C44.6785 16.0417 44.6325 15.7273 44.6325 15.344V9.916ZM56.8687 17.368C55.9641 17.368 55.1207 17.2453 54.3387 17C53.5721 16.7393 52.8974 16.356 52.3147 15.85C51.7474 15.344 51.2951 14.7077 50.9577 13.941C50.6357 13.1743 50.4747 12.2773 50.4747 11.25C50.4747 10.238 50.6357 9.37167 50.9577 8.651C51.2951 7.915 51.7321 7.317 52.2687 6.857C52.8054 6.38167 53.4187 6.03667 54.1087 5.822C54.7987 5.592 55.5041 5.477 56.2247 5.477C57.0374 5.477 57.7734 5.59967 58.4327 5.845C59.1074 6.09033 59.6824 6.42767 60.1577 6.857C60.6484 7.28633 61.0241 7.8 61.2847 8.398C61.5607 8.996 61.6987 9.64767 61.6987 10.353C61.6987 10.8743 61.5531 11.273 61.2617 11.549C60.9704 11.825 60.5641 12.0013 60.0427 12.078L54.3617 12.929C54.5304 13.435 54.8754 13.8183 55.3967 14.079C55.9181 14.3243 56.5161 14.447 57.1907 14.447C57.8194 14.447 58.4097 14.3703 58.9617 14.217C59.5291 14.0483 59.9891 13.8567 60.3417 13.642C60.5871 13.7953 60.7941 14.01 60.9627 14.286C61.1314 14.562 61.2157 14.8533 61.2157 15.16C61.2157 15.85 60.8937 16.3637 60.2497 16.701C59.7591 16.9617 59.2071 17.138 58.5937 17.23C57.9804 17.322 57.4054 17.368 56.8687 17.368ZM56.2247 8.329C55.8567 8.329 55.5347 8.39033 55.2587 8.513C54.9981 8.63567 54.7834 8.79667 54.6147 8.996C54.4461 9.18 54.3157 9.39467 54.2237 9.64C54.1471 9.87 54.1011 10.1077 54.0857 10.353L58.0187 9.709C57.9727 9.40233 57.8041 9.09567 57.5127 8.789C57.2214 8.48233 56.7921 8.329 56.2247 8.329ZM62.8908 15.137C62.8908 14.493 63.0901 13.9563 63.4888 13.527C63.8874 13.0977 64.4318 12.883 65.1218 12.883C65.8118 12.883 66.3561 13.0977 66.7548 13.527C67.1534 13.9563 67.3528 14.493 67.3528 15.137C67.3528 15.781 67.1534 16.3177 66.7548 16.747C66.3561 17.1763 65.8118 17.391 65.1218 17.391C64.4318 17.391 63.8874 17.1763 63.4888 16.747C63.0901 16.3177 62.8908 15.781 62.8908 15.137ZM74.4202 5.477C75.0489 5.477 75.6622 5.569 76.2602 5.753C76.8736 5.92167 77.4026 6.18233 77.8472 6.535C78.3072 6.22833 78.8209 5.97533 79.3882 5.776C79.9709 5.57667 80.6686 5.477 81.4812 5.477C82.0639 5.477 82.6312 5.55367 83.1832 5.707C83.7506 5.86033 84.2489 6.10567 84.6782 6.443C85.1229 6.765 85.4756 7.202 85.7362 7.754C85.9969 8.29067 86.1272 8.95 86.1272 9.732V16.977C85.9739 17.023 85.7286 17.069 85.3912 17.115C85.0692 17.161 84.7319 17.184 84.3792 17.184C84.0419 17.184 83.7352 17.161 83.4592 17.115C83.1986 17.069 82.9762 16.977 82.7922 16.839C82.6082 16.701 82.4626 16.517 82.3552 16.287C82.2632 16.0417 82.2172 15.7273 82.2172 15.344V9.847C82.2172 9.387 82.0869 9.05733 81.8262 8.858C81.5656 8.64333 81.2129 8.536 80.7682 8.536C80.5536 8.536 80.3236 8.58967 80.0782 8.697C79.8329 8.789 79.6489 8.88867 79.5262 8.996C79.5416 9.05733 79.5492 9.11867 79.5492 9.18C79.5492 9.226 79.5492 9.272 79.5492 9.318V16.977C79.3806 17.023 79.1276 17.069 78.7902 17.115C78.4682 17.161 78.1386 17.184 77.8012 17.184C77.4639 17.184 77.1572 17.161 76.8812 17.115C76.6206 17.069 76.3982 16.977 76.2142 16.839C76.0302 16.701 75.8846 16.517 75.7772 16.287C75.6852 16.0417 75.6392 15.7273 75.6392 15.344V9.847C75.6392 9.387 75.4936 9.05733 75.2022 8.858C74.9262 8.64333 74.5889 8.536 74.1902 8.536C73.9142 8.536 73.6766 8.582 73.4772 8.674C73.2779 8.75067 73.1092 8.82733 72.9712 8.904V16.977C72.8179 17.023 72.5726 17.069 72.2352 17.115C71.9132 17.161 71.5759 17.184 71.2232 17.184C70.8859 17.184 70.5792 17.161 70.3032 17.115C70.0426 17.069 69.8202 16.977 69.6362 16.839C69.4522 16.701 69.3066 16.517 69.1992 16.287C69.1072 16.0417 69.0612 15.7273 69.0612 15.344V8.398C69.0612 7.984 69.1456 7.65433 69.3142 7.409C69.4982 7.16367 69.7436 6.93367 70.0502 6.719C70.5716 6.351 71.2156 6.052 71.9822 5.822C72.7642 5.592 73.5769 5.477 74.4202 5.477ZM94.4234 17.368C93.5187 17.368 92.6754 17.2453 91.8934 17C91.1267 16.7393 90.4521 16.356 89.8694 15.85C89.3021 15.344 88.8497 14.7077 88.5124 13.941C88.1904 13.1743 88.0294 12.2773 88.0294 11.25C88.0294 10.238 88.1904 9.37167 88.5124 8.651C88.8497 7.915 89.2867 7.317 89.8234 6.857C90.3601 6.38167 90.9734 6.03667 91.6634 5.822C92.3534 5.592 93.0587 5.477 93.7794 5.477C94.5921 5.477 95.3281 5.59967 95.9874 5.845C96.6621 6.09033 97.2371 6.42767 97.7124 6.857C98.2031 7.28633 98.5787 7.8 98.8394 8.398C99.1154 8.996 99.2534 9.64767 99.2534 10.353C99.2534 10.8743 99.1077 11.273 98.8164 11.549C98.5251 11.825 98.1187 12.0013 97.5974 12.078L91.9164 12.929C92.0851 13.435 92.4301 13.8183 92.9514 14.079C93.4727 14.3243 94.0707 14.447 94.7454 14.447C95.3741 14.447 95.9644 14.3703 96.5164 14.217C97.0837 14.0483 97.5437 13.8567 97.8964 13.642C98.1417 13.7953 98.3487 14.01 98.5174 14.286C98.6861 14.562 98.7704 14.8533 98.7704 15.16C98.7704 15.85 98.4484 16.3637 97.8044 16.701C97.3137 16.9617 96.7617 17.138 96.1484 17.23C95.5351 17.322 94.9601 17.368 94.4234 17.368ZM93.7794 8.329C93.4114 8.329 93.0894 8.39033 92.8134 8.513C92.5527 8.63567 92.3381 8.79667 92.1694 8.996C92.0007 9.18 91.8704 9.39467 91.7784 9.64C91.7017 9.87 91.6557 10.1077 91.6404 10.353L95.5734 9.709C95.5274 9.40233 95.3587 9.09567 95.0674 8.789C94.7761 8.48233 94.3467 8.329 93.7794 8.329Z" fill="#89C5CC"/>
</svg>
